<svg width="17" height="22" viewBox="0 0 17 22" fill="none" xmlns="http://www.w3.org/2000/svg">
<path d="M7.61585 21.9987C6.18185 21.9987 4.74397 21.9974 3.31516 21.9909C1.40404 21.9831 0.0115325 20.5751 0.00375311 18.6432C-0.00143312 17.1664 -0.000137115 15.6663 0.00115944 14.2155C0.00115944 13.562 0.00115944 12.9098 0.00115944 12.2564V10.8353C0.00115944 9.22371 0.00115944 7.61339 0.00115944 6.00177C0.00115944 4.32143 0.894488 3.12211 2.45036 2.7124C3.0377 2.55811 3.65616 2.56978 4.20071 2.58015H4.29925C4.33296 2.58274 4.3563 2.58015 4.37186 2.58015C4.38223 2.56459 4.39649 2.53996 4.41594 2.50106C5.21462 0.888143 6.63694 0 8.42101 0H8.42749C10.2284 0.00259312 11.6287 0.884253 12.4779 2.55163C12.4831 2.562 12.4883 2.57107 12.4922 2.57756C12.5052 2.57756 12.5207 2.58015 12.5415 2.58145C12.6387 2.58534 12.736 2.58923 12.8345 2.59182C13.4154 2.61127 14.017 2.63201 14.6082 2.79927C15.849 3.15064 16.6217 4.08934 16.7838 5.44036C16.824 5.77357 16.8435 6.12494 16.8435 6.48668C16.8435 8.23055 16.8396 9.97442 16.8357 11.7183C16.8331 13.0862 16.8305 14.454 16.8292 15.8206C16.8292 16.2511 16.8331 16.6802 16.8357 17.1107C16.8396 17.5671 16.8435 18.0222 16.8422 18.4785C16.8396 19.7297 16.3935 20.6944 15.5171 21.3478C14.944 21.7744 14.2853 21.9922 13.5593 21.9935H12.4663C10.8702 21.9974 9.24562 22 7.61455 22L7.61585 21.9987ZM1.29902 12.2564C1.29902 12.9098 1.29902 13.5633 1.29902 14.2168C1.29902 15.6663 1.29642 17.1651 1.30161 18.638C1.3055 19.8438 2.13659 20.6892 3.32165 20.6944C6.36985 20.706 9.46863 20.7008 12.4663 20.697H13.5593C14.0066 20.6944 14.3943 20.5673 14.743 20.3067C15.2889 19.8996 15.5443 19.3174 15.5469 18.4747C15.5469 18.0235 15.5443 17.5723 15.5404 17.1211C15.5365 16.6867 15.5326 16.2524 15.5326 15.818C15.5339 14.4501 15.5365 13.0823 15.5391 11.7144C15.5417 9.97183 15.5456 8.22796 15.5469 6.48538C15.5469 6.17551 15.53 5.876 15.4963 5.59335C15.3965 4.76096 14.9907 4.25401 14.2555 4.04526C13.816 3.92079 13.3194 3.90394 12.7917 3.88708C12.6906 3.88319 12.5894 3.8806 12.4883 3.87671C11.9308 3.85337 11.5716 3.62647 11.324 3.14026C10.703 1.91891 9.72794 1.29915 8.42749 1.29656H8.42231C7.11927 1.29656 6.1637 1.89557 5.57895 3.07673C5.30279 3.63555 4.88529 3.88838 4.27591 3.8793H4.17608C3.69246 3.86763 3.19329 3.85856 2.78098 3.96747C1.55573 4.29031 1.29902 5.25236 1.29902 6.00306C1.29902 7.61469 1.29902 9.22501 1.29902 10.8366V12.2577V12.2564ZM8.46898 6.45816C8.45213 6.45816 8.43397 6.45816 8.41712 6.45816C7.27096 6.42834 6.51118 5.68541 6.48136 4.56648V4.55092C6.48006 3.97395 6.68362 3.45533 7.05444 3.09359C7.4084 2.7487 7.89461 2.56589 8.4249 2.58015C9.25599 2.60219 10.266 2.95615 10.3607 4.51591C10.3918 5.02676 10.2116 5.51037 9.855 5.87989C9.49845 6.24941 8.99538 6.45816 8.46898 6.45816ZM7.77662 4.53925C7.7857 4.84005 7.87645 5.14734 8.45083 5.1616C8.63364 5.16549 8.80479 5.09936 8.92278 4.97878C8.99409 4.90488 9.07707 4.77782 9.0667 4.59371C9.03039 3.9934 8.86573 3.88838 8.39119 3.87541C8.20837 3.87023 8.06446 3.9195 7.96073 4.02063C7.84404 4.13472 7.77921 4.31884 7.77792 4.53925H7.77662Z" fill="#F16767"/>
<path d="M8.42209 9.64941H8.4208C7.95392 9.64941 7.57544 10.0279 7.57544 10.4948V13.5274C7.57544 13.9943 7.95392 14.3728 8.4208 14.3728H8.42209C8.88897 14.3728 9.26745 13.9943 9.26745 13.5274V10.4948C9.26745 10.0279 8.88897 9.64941 8.42209 9.64941Z" fill="#F16767"/>
<path d="M8.42209 15.0854H8.4208C7.95392 15.0854 7.57544 15.4639 7.57544 15.9308V15.9321C7.57544 16.399 7.95392 16.7775 8.4208 16.7775H8.42209C8.88897 16.7775 9.26745 16.399 9.26745 15.9321V15.9308C9.26745 15.4639 8.88897 15.0854 8.42209 15.0854Z" fill="#F16767"/>
</svg>
