<svg width="17" height="22" viewBox="0 0 17 22" fill="none" xmlns="http://www.w3.org/2000/svg">
<path d="M7.61568 21.9974C6.18177 21.9974 4.74267 21.9961 3.31525 21.9896C1.40423 21.9818 0.0118124 20.5752 0.0040335 18.6421C-0.00115243 17.1615 0.000144054 15.6563 0.000144054 14.2017C0.000144054 13.5534 0.000144054 12.9052 0.000144054 12.2569V11.0655C0.000144054 9.37745 0.000144054 7.68943 0.000144054 6.00141C0.000144054 4.32117 0.89342 3.12193 2.4492 2.71224C3.0365 2.55796 3.65493 2.56963 4.19945 2.58H4.29798C4.33169 2.58259 4.35503 2.58 4.37058 2.58C4.38096 2.56444 4.39522 2.53981 4.41466 2.50091C5.21459 0.88809 6.63683 0 8.42209 0H8.42857C10.2294 0.00259296 11.6296 0.884201 12.4788 2.55148C12.484 2.56185 12.4892 2.57092 12.493 2.57741C12.506 2.57741 12.5216 2.58 12.5423 2.5813C12.6395 2.58518 12.7368 2.58907 12.8353 2.59167C13.4161 2.61111 14.0177 2.63186 14.6089 2.7991C15.8496 3.15045 16.6223 4.0891 16.7844 5.44004C16.8246 5.77323 16.844 6.12458 16.844 6.4863C16.844 8.22488 16.8401 9.96346 16.8363 11.7033C16.8337 13.075 16.8311 14.448 16.8298 15.821C16.8298 16.2514 16.8337 16.6818 16.8363 17.1136C16.8401 17.5686 16.844 18.0237 16.8427 18.4788C16.8401 19.7299 16.3942 20.6944 15.5177 21.3479C14.9447 21.7744 14.2861 21.9922 13.56 21.9935H12.4671C10.8711 21.9974 9.24665 22 7.61568 22V21.9974ZM3.76383 3.87129C3.41767 3.87129 3.0767 3.88815 2.7811 3.96594C1.55592 4.28876 1.29922 5.25075 1.29922 6.00141C1.29922 7.68943 1.29922 9.37745 1.29922 11.0642V12.2556C1.29922 12.9039 1.29922 13.5534 1.29922 14.2017C1.29922 15.6563 1.29663 17.1589 1.30181 18.6369C1.3057 19.8427 2.13675 20.688 3.32173 20.6931C6.36976 20.7048 9.46835 20.6996 12.4658 20.6957H13.5588C14.006 20.6931 14.3937 20.5661 14.7424 20.3055C15.2896 19.8984 15.5437 19.3163 15.5463 18.4736C15.5463 18.0224 15.5437 17.5725 15.5398 17.1213C15.5359 16.687 15.532 16.2514 15.532 15.8171C15.5333 14.4441 15.5359 13.0711 15.5385 11.6995C15.5411 9.96087 15.545 8.22358 15.5463 6.485C15.5463 6.17514 15.5294 5.87436 15.4957 5.59302C15.3959 4.76068 14.9901 4.25376 14.255 4.04632C13.8155 3.92186 13.3189 3.905 12.7912 3.88815C12.6901 3.88426 12.589 3.88167 12.4879 3.87778C11.9304 3.85444 11.5712 3.62756 11.3236 3.14138C10.7026 1.92009 9.72765 1.30037 8.42728 1.29778H8.42209C7.11913 1.29778 6.16362 1.89675 5.57891 3.07785C5.30275 3.63663 4.88529 3.88945 4.27594 3.88037H4.17611C4.03868 3.87518 3.89996 3.87259 3.76253 3.87259L3.76383 3.87129ZM8.46876 6.45778C8.45191 6.45778 8.43376 6.45778 8.4169 6.45778C7.27081 6.42796 6.51108 5.68507 6.48126 4.56621V4.55065C6.47996 3.97372 6.68351 3.45512 7.0543 3.09341C7.40824 2.74854 7.89702 2.56574 8.42468 2.58C9.25573 2.60204 10.2657 2.95598 10.3603 4.51565C10.3914 5.02646 10.2112 5.51005 9.8547 5.87954C9.49817 6.24904 8.99514 6.45778 8.46876 6.45778ZM7.77644 4.53898C7.78552 4.83977 7.87627 5.14703 8.45061 5.16129C8.63342 5.16518 8.80455 5.09906 8.92253 4.97849C8.99384 4.90459 9.07681 4.77754 9.06644 4.59343C9.03014 3.99316 8.86549 3.88815 8.39097 3.87518C8.20687 3.87 8.06426 3.91926 7.96054 4.02039C7.84386 4.13448 7.77904 4.31858 7.77774 4.53898H7.77644Z" fill="#54C3F6"/>
<path d="M7.12543 14.4938C6.98281 14.3006 6.92317 14.1943 6.8402 14.11C6.34235 13.6005 5.8458 13.0884 5.33499 12.5919C4.76713 12.0396 3.9672 12.1433 3.64826 12.7967C3.47064 13.1597 3.58992 13.6589 3.96331 14.0349C4.72305 14.8024 5.48797 15.566 6.25419 16.327C6.86224 16.9312 7.40287 16.926 8.01741 16.3128C9.29314 15.0383 10.5676 13.7626 11.8433 12.4869C12.2102 12.1199 12.5862 11.7634 12.9389 11.3848C13.4704 10.8144 13.3563 10.0209 12.7172 9.73442C12.3139 9.55421 11.8537 9.66312 11.4803 10.0365C10.3277 11.1904 9.17646 12.3429 8.03037 13.502C7.74255 13.7924 7.47807 14.1062 7.12543 14.4938Z" fill="#54C3F6"/>
</svg>
