<svg width="20" height="18" viewBox="0 0 20 18" fill="none" xmlns="http://www.w3.org/2000/svg">
<path d="M17.4542 5.19434H1.94653V10.8227H17.4542V5.19434Z" fill="#FFE600"/>
<path d="M6.93384 8.73771H8.1455L7.53948 7.41016L6.93384 8.73771Z" fill="#3B1E1E"/>
<path d="M9.69994 0C4.3425 0 0 3.45894 0 7.72578C0 10.4385 1.75604 12.823 4.41115 14.2011L3.67817 18L7.87304 15.3128C8.46503 15.4028 9.07511 15.4516 9.69994 15.4516C15.0574 15.4516 19.4006 11.9926 19.4006 7.72541C19.4006 3.45894 15.0574 0 9.69994 0ZM4.78243 10.0111C4.78243 10.1185 4.73888 10.2237 4.66211 10.3001C4.58645 10.3765 4.4809 10.4196 4.37387 10.4196H4.28234C4.17531 10.4196 4.06975 10.3765 3.99373 10.2993C3.91733 10.2237 3.87378 10.1185 3.87378 10.0111V6.63407H2.8795C2.79793 6.63407 2.71858 6.61155 2.65104 6.56985C2.58535 6.52888 2.53442 6.4713 2.50304 6.40413C2.48275 6.35948 2.47094 6.30928 2.47094 6.25946C2.47094 6.20963 2.48275 6.15981 2.50341 6.11367C2.52408 6.07012 2.55361 6.02989 2.59088 5.99557C2.66802 5.92434 2.77062 5.88485 2.8795 5.88485H5.76564C5.8472 5.88485 5.92655 5.90736 5.99373 5.94907C6.05979 5.98967 6.11146 6.04761 6.14246 6.11441C6.16313 6.16018 6.1742 6.21 6.1742 6.25946C6.1742 6.30891 6.16313 6.35911 6.14246 6.40413C6.12106 6.44916 6.09153 6.48939 6.05499 6.52334C5.97675 6.59457 5.87488 6.63407 5.76564 6.63407H4.78243V10.0111ZM9.61764 10.2207C9.57483 10.289 9.51504 10.3421 9.44196 10.3746L9.35744 10.413C9.23528 10.4687 9.08692 10.4599 8.97066 10.3864C8.90275 10.344 8.84997 10.2838 8.81676 10.2107L8.48201 9.47666H6.59642L6.26389 10.207C6.23104 10.279 6.17826 10.3392 6.11035 10.3824C5.99446 10.4558 5.84462 10.4658 5.72283 10.4093L5.63868 10.3709C5.56634 10.3381 5.50544 10.2853 5.463 10.217C5.42166 10.1506 5.39989 10.0749 5.39989 9.99742C5.39989 9.93947 5.41207 9.8819 5.43643 9.82949L7.07621 6.23436L7.08839 6.20041C7.0991 6.15907 7.1157 6.11958 7.13859 6.08378C7.1456 6.07308 7.15335 6.062 7.1707 6.03912C7.20244 5.98893 7.24562 5.94612 7.29581 5.91474C7.36187 5.87378 7.4379 5.85163 7.51504 5.85163C7.53202 5.85163 7.54789 5.85274 7.58258 5.85643C7.65455 5.85938 7.7243 5.88079 7.7852 5.91917C7.82026 5.94132 7.85163 5.96826 7.88854 6.01144C7.90958 6.03322 7.92766 6.05573 7.94279 6.08046C7.96715 6.11958 7.98524 6.16313 7.99631 6.21L9.73574 10.0343L9.61764 10.2207ZM13.0961 10.2115C13.0758 10.2495 13.05 10.2823 13.019 10.3108C12.9411 10.3809 12.8389 10.42 12.73 10.42H10.3491C10.3347 10.42 10.3211 10.4193 10.3067 10.4178C10.2395 10.4108 10.1757 10.3905 10.1207 10.3565C10.0624 10.3204 10.0148 10.272 9.98302 10.2137L9.94205 10.1469V6.29341C9.94205 6.18638 9.98597 6.08083 10.0624 6.0048C10.138 5.92877 10.2425 5.88522 10.3506 5.88522H10.4436C10.5503 5.88522 10.6547 5.92877 10.7311 6.00554C10.8068 6.08083 10.8507 6.18638 10.8507 6.29341V9.68149H12.73C12.8116 9.68149 12.8909 9.704 12.9577 9.74497C12.9917 9.76638 13.0212 9.79111 13.0471 9.81915L13.2094 10.0015L13.0961 10.2115ZM16.9079 10.1406C16.8799 10.1986 16.8367 10.2502 16.7839 10.2879L16.7097 10.3425C16.5909 10.4292 16.4207 10.4429 16.2868 10.3787C16.2292 10.3495 16.1772 10.3067 16.1391 10.2539L14.8559 8.50194L14.3167 9.06403V10.0107C14.3167 10.1181 14.2735 10.2233 14.1963 10.2997C14.1207 10.3761 14.0155 10.4189 13.9081 10.4189H13.8166C13.7092 10.4189 13.604 10.3761 13.5276 10.2993C13.5014 10.2724 13.4778 10.2421 13.4589 10.2085L13.4076 10.1159V6.29341C13.4076 6.18638 13.4508 6.08083 13.5272 6.0048C13.6036 5.92877 13.7081 5.88522 13.8162 5.88522H13.9092C14.0159 5.88522 14.1199 5.92877 14.1963 6.00554C14.2727 6.08083 14.3159 6.18638 14.3159 6.29341V7.75051L15.9863 6.00812C16.0247 5.96826 16.072 5.93578 16.1233 5.91438C16.2679 5.85459 16.4477 5.88522 16.5636 5.99594L16.6307 6.06053C16.671 6.09928 16.7027 6.14505 16.7245 6.19708C16.7452 6.24691 16.7555 6.30042 16.7555 6.35578C16.7562 6.46171 16.7156 6.56173 16.6422 6.63812L15.4933 7.83613L16.8714 9.71803C16.9219 9.78668 16.95 9.87156 16.9493 9.95793C16.9507 10.021 16.936 10.0838 16.9079 10.1406Z" fill="#3B1E1E"/>
</svg>
