<svg width="24" height="20" viewBox="0 0 24 20" fill="none" xmlns="http://www.w3.org/2000/svg">
<path d="M11.694 0.0059767C11.694 0.00927753 11.6913 0.0119533 11.688 0.0119545C5.23484 0.0142615 0 3.7308 0 8.31937C0 10.9849 1.78095 13.3516 4.53095 14.8697C4.76667 15.0012 4.88452 15.2402 4.83214 15.4793L3.96786 19.8302C3.94167 19.9617 4.09881 20.0454 4.21667 19.9737L9.28452 16.6029C9.41548 16.5192 9.57262 16.4834 9.74286 16.4953C10.3845 16.567 11.0262 16.6148 11.694 16.6148C18.15 16.6148 23.3881 12.8974 23.3881 8.30742C23.3881 3.71884 18.1533 0.00230801 11.7001 1.07456e-06C11.6968 -1.0545e-07 11.694 0.00267586 11.694 0.0059767Z" fill="#191919"/>
</svg>
