<svg width="166" height="45" viewBox="0 0 166 45" fill="none" xmlns="http://www.w3.org/2000/svg">
<path d="M21.6112 0C14.1029 0 8.00342 6.09945 8.00342 13.6077V17.8011C6.92608 17.2873 5.88188 16.7238 4.85425 16.0939C3.36254 15.1823 1.40674 15.6464 0.478564 17.1381C-0.449613 18.6298 0.0144756 20.6022 1.50619 21.5138C3.57801 22.7901 5.74928 23.8508 8.00342 24.7127V41.8177C8.00342 43.5746 9.42884 45 11.1857 45C12.9427 45 14.3681 43.5746 14.3681 41.8177V26.5193C16.7382 26.9668 19.1581 27.2155 21.6112 27.2155C29.1194 27.2155 35.2189 21.116 35.2189 13.6077C35.2189 6.09945 29.1194 0 21.6112 0ZM21.6112 20.8508C17.6167 20.8508 14.3681 17.6022 14.3681 13.6077C14.3681 9.61326 17.6167 6.36464 21.6112 6.36464C25.6056 6.36464 28.8543 9.61326 28.8543 13.6077C28.8543 17.6022 25.6056 20.8508 21.6112 20.8508Z" fill="url(#paint0_linear_144_2206)"/>
<path d="M41.8983 12.033C41.9646 11.9004 42.0972 11.8176 42.2464 11.8176C42.3955 11.8176 42.5281 11.9004 42.5944 12.033L43.6552 14.3037L45.1138 11.5689C44.4674 10.6905 43.4232 10.127 42.2629 10.127C41.1027 10.127 40.0585 10.6905 39.4121 11.5689L40.8707 14.3037L41.8983 12.033Z" fill="url(#paint1_linear_144_2206)"/>
<path d="M63.5944 20.2871C57.1137 20.2871 51.843 25.5578 51.843 32.0385V41.8175C51.843 43.5744 53.2684 44.9998 55.0253 44.9998C56.7822 44.9998 58.2077 43.5744 58.2077 41.8175V32.0385C58.2077 29.0716 60.6275 26.6518 63.5944 26.6518C66.5612 26.6518 68.9811 29.0716 68.9811 32.0385V41.8175C68.9811 43.5744 70.4066 44.9998 72.1635 44.9998C73.9204 44.9998 75.3458 43.5744 75.3458 41.8175V32.0385C75.3458 25.5578 70.0751 20.2871 63.5944 20.2871Z" fill="url(#paint2_linear_144_2206)"/>
<path d="M42.2133 20.2871C40.4564 20.2871 39.031 21.7125 39.031 23.4694V41.8175C39.031 43.5744 40.4564 44.9998 42.2133 44.9998C43.9702 44.9998 45.3956 43.5744 45.3956 41.8175V23.4694C45.3956 21.7125 43.9702 20.2871 42.2133 20.2871Z" fill="url(#paint3_linear_144_2206)"/>
<path d="M43.6056 15.53C43.4565 15.53 43.3239 15.4471 43.2741 15.3145L42.2465 13.0935L41.2023 15.3145C41.136 15.4471 41.0034 15.53 40.8708 15.53C40.8708 15.53 40.8708 15.53 40.8543 15.53C40.7217 15.53 40.5891 15.4471 40.5228 15.3311L38.9316 12.3477C38.7659 12.762 38.683 13.193 38.683 13.6736C38.683 15.6294 40.2741 17.2372 42.2465 17.2372C44.2189 17.2372 45.8101 15.646 45.8101 13.6736C45.8101 13.2095 45.7106 12.762 45.5614 12.3477L43.9703 15.3311C43.8874 15.4637 43.7548 15.5466 43.6056 15.53Z" fill="url(#paint4_linear_144_2206)"/>
<path opacity="0.9" d="M8.00342 41.8179C8.00342 43.5748 9.42883 45.0002 11.1857 45.0002C12.9426 45.0002 14.3681 43.5748 14.3681 41.8179V26.5195C12.1968 26.1052 10.0752 25.4919 8.00342 24.7129V41.8179Z" fill="url(#paint5_linear_144_2206)"/>
<path opacity="0.9" d="M14.3681 13.6081C14.3681 11.8512 12.9426 10.4258 11.1857 10.4258C9.42883 10.4258 8.00342 11.8512 8.00342 13.6081V17.8015C8.26861 17.9175 8.5338 18.0501 8.799 18.1661C10.5891 18.9617 12.462 19.575 14.3681 20.0059C16.7217 20.5529 19.1581 20.8346 21.6112 20.8346C17.6167 20.8512 14.3681 17.6026 14.3681 13.6081Z" fill="url(#paint6_linear_144_2206)"/>
<path d="M106.688 45.0002C99.7769 45.0002 94.1581 39.3814 94.1581 32.4698C94.1581 25.5582 99.7769 19.9395 106.688 19.9395C113.6 19.9395 119.219 25.5582 119.219 32.4698C119.219 39.3814 113.6 45.0002 106.688 45.0002ZM106.688 26.3041C103.291 26.3041 100.523 29.0721 100.523 32.4698C100.523 35.8676 103.291 38.6356 106.688 38.6356C110.086 38.6356 112.854 35.8676 112.854 32.4698C112.854 29.0721 110.086 26.3041 106.688 26.3041Z" fill="#00A0E9"/>
<path d="M142.241 35.1217C141.263 31.525 137.799 30.1162 134.534 29.2212C133.224 28.8565 132.197 28.525 131.517 28.2101C130.788 27.8786 130.407 27.4643 130.407 26.967V26.8841C130.407 26.5029 130.606 26.188 130.97 25.9394C131.335 25.7074 131.865 25.5913 132.545 25.5913C133.556 25.5913 134.733 25.8068 136.025 26.188C136.473 26.3206 136.937 26.4864 137.385 26.6521C138.827 27.1991 140.451 26.6355 141.18 25.3096C141.595 24.5637 141.661 23.7184 141.362 22.9062C141.064 22.0775 140.401 21.4311 139.556 21.1328C139.059 20.9504 138.528 20.7847 137.998 20.6355C136.241 20.1549 134.434 19.9062 132.628 19.9062C129.744 19.9228 127.374 20.6024 125.583 21.9449C123.793 23.2709 122.865 25.2267 122.815 27.746V27.8289C122.865 30.0665 123.943 31.2267 125.65 32.3703C127.274 33.4643 129.362 34.293 131.849 34.8565C132.031 34.9063 132.213 34.9394 132.429 34.9891C133.871 35.3206 136.042 35.8013 135.644 37.7074C135.379 38.9339 134.318 39.0996 133.291 39.0996C131.981 39.0996 130.572 38.8676 129.081 38.4035C128.418 38.2046 127.755 37.9394 127.108 37.6411C126.694 37.4587 126.246 37.3593 125.815 37.3593C124.821 37.3593 123.86 37.84 123.313 38.7018L123.246 38.8179C122.816 39.514 122.699 40.3096 122.915 41.0886C123.147 41.8841 123.727 42.5306 124.49 42.8952C125.335 43.293 126.23 43.6245 127.125 43.8897C129.097 44.4698 131.136 44.7681 133.208 44.7681H133.224C136.075 44.7681 138.031 44.188 139.937 42.746C142.456 40.8897 142.904 37.5913 142.241 35.1217Z" fill="#00A0E9"/>
<path d="M165.479 35.1217C164.501 31.525 161.037 30.1162 157.771 29.2212C156.462 28.8565 155.434 28.525 154.755 28.2101C154.026 27.8786 153.644 27.4643 153.644 26.967V26.8841C153.644 26.5029 153.843 26.188 154.208 25.9394C154.573 25.7074 155.103 25.5913 155.782 25.5913C156.793 25.5913 157.97 25.8068 159.263 26.188C159.711 26.3206 160.175 26.4864 160.622 26.6521C162.064 27.1991 163.689 26.6355 164.418 25.3096C164.832 24.5637 164.898 23.7184 164.6 22.9062C164.302 22.0775 163.639 21.4311 162.793 21.1328C162.296 20.9504 161.766 20.7847 161.235 20.6355C159.479 20.1549 157.672 19.9062 155.865 19.9062C152.981 19.9228 150.611 20.6024 148.821 21.9449C147.031 23.2709 146.103 25.2267 146.053 27.746V27.8289C146.103 30.0665 147.18 31.2267 148.887 32.3703C150.512 33.4643 152.6 34.293 155.086 34.8565C155.269 34.9063 155.451 34.9394 155.666 34.9891C157.108 35.3206 159.28 35.8013 158.882 37.7074C158.617 38.9339 157.556 39.0996 156.528 39.0996C155.219 39.0996 153.81 38.8676 152.318 38.4035C151.655 38.2046 150.992 37.9394 150.346 37.6411C149.932 37.4587 149.484 37.3593 149.053 37.3593C148.059 37.3593 147.097 37.84 146.55 38.7018L146.484 38.8179C146.053 39.514 145.937 40.3096 146.153 41.0886C146.385 41.8841 146.948 42.5306 147.727 42.8952C148.572 43.293 149.468 43.6245 150.363 43.8897C152.335 44.4698 154.374 44.7681 156.445 44.7681H156.462C159.313 44.7681 161.269 44.188 163.175 42.746C165.694 40.8897 166.142 37.5913 165.479 35.1217Z" fill="#00A0E9"/>
<path d="M146.484 12.5967H147.578V12.9116H146.882V16.5912H147.578V16.9061H146.484V12.5967Z" fill="#00A0E9"/>
<path d="M151.241 14.8008C150.909 14.8506 150.396 14.9003 149.898 14.9169C149.401 14.95 148.887 14.9666 148.49 14.9666L148.423 14.6185C148.622 14.6185 148.838 14.6185 149.053 14.6185C149.003 14.2373 148.97 13.8395 148.92 13.4583L149.318 13.4086L149.418 14.6185C149.617 14.6185 149.815 14.6019 149.998 14.6019C150.031 14.6019 150.064 14.6019 150.097 14.6019C150.13 14.2041 150.164 13.8064 150.197 13.4086L150.594 13.4583L150.462 14.5854C150.76 14.5356 151.025 14.5191 151.208 14.4859L151.241 14.8008ZM148.556 13.1765V12.8616H150.992V13.1765H148.556ZM149.119 16.8064V15.4472H149.517V16.4749H152.169V16.8064H149.119ZM151.672 15.729V12.4307H152.07V15.729H151.672Z" fill="#00A0E9"/>
<path d="M154.075 14.1375V14.8336H156.843V15.1651H155.434V16.0436H157.291V16.3751H153.197V16.0436H155.036V15.1651H153.677V12.8115H156.777V13.143H154.059V13.806H156.628V14.1375H154.075Z" fill="#00A0E9"/>
<path d="M158.053 16.3253V15.9938H162.147V16.3253H158.053ZM161.766 15.0822C161.003 14.8502 160.274 14.2038 160.092 13.7562C159.926 14.2203 159.213 14.8667 158.417 15.0822L158.202 14.7341C158.948 14.585 159.876 13.8888 159.876 13.1596V12.7949H160.29V13.1596C160.29 13.9054 161.285 14.6016 161.981 14.7507L161.766 15.0822Z" fill="#00A0E9"/>
<path d="M162.926 16.5912H163.622V12.9116H162.926V12.5967H164.02V16.9061H162.926V16.5912Z" fill="#00A0E9"/>
<path d="M84.9591 45.0001C83.2022 45.0001 81.7768 43.5746 81.7768 41.8177V20.6188C81.7768 18.7459 80.252 17.2045 78.3624 17.2045H55.0089C53.252 17.2045 51.8265 15.7791 51.8265 14.0222C51.8265 12.2653 53.252 10.8398 55.0089 10.8398H78.3624C83.7492 10.8398 88.1414 15.2155 88.1414 20.6188V41.8177C88.1414 43.5746 86.716 45.0001 84.9591 45.0001Z" fill="#00499E"/>
<path d="M92.6828 17.1382H91.8873V10.873H92.6828V17.1382ZM90.4618 17.1382H89.6663V10.873H90.4618V17.1382ZM96.3292 17.1382H95.5834V10.873H96.3292V17.1382ZM94.8541 17.1382H94.1082V10.873H94.8541V17.1382ZM115.108 17.1382H113.583V10.873H115.108V17.1382ZM112.108 17.1382H110.583V10.873H112.108V17.1382ZM97.2077 10.873H96.8928V17.1382H97.2077V10.873ZM101.6 17.1382H100.589V10.873H101.6V17.1382ZM99.9591 17.1382H97.9701V10.873H99.9591V17.1382ZM102.744 10.873H102.429V17.1382H102.744V10.873ZM105.13 10.873H103.672V17.1382H105.13V10.873ZM109.523 10.873H107.103V17.1382H109.523V10.873ZM118.042 10.873H117.097V17.1382H118.042V10.873ZM116.368 10.873H116.053V17.1382H116.368V10.873ZM106.274 10.873H105.959V17.1382H106.274V10.873Z" fill="#00499E"/>
<path d="M54.3128 3.28188C54.2631 4.54154 53.4675 5.20453 52.3073 5.53602L52.1084 5.2211C52.8211 5.03878 53.3018 4.74044 53.6001 4.34265L52.1913 4.49182L52.1084 4.14375L53.7824 4.02773C53.8322 3.89514 53.8819 3.76254 53.8985 3.62994H52.3239V3.29845H54.3128V3.28188ZM52.8045 7.55812V6.43105H55.3404V6.00011H52.788V5.66862H55.7382V6.74596H53.2023V7.2432H55.904V7.57469H52.8045V7.55812ZM54.3294 4.54154V4.21005H55.3239V3.06641H55.7217V5.43657H55.3239V4.54154H54.3294Z" fill="#00499E"/>
<path d="M58.937 6.69624C58.4729 6.4642 57.9591 5.93381 57.7934 5.46972C57.6608 5.95038 57.147 6.54707 56.6663 6.81226L56.4011 6.51392C56.9647 6.23215 57.5779 5.53602 57.5779 4.69072V4.42552H56.5503V4.09403H59.0199V4.42552H57.9923V4.69072C57.9923 5.51944 58.6553 6.18243 59.1691 6.38132L58.937 6.69624ZM57.1138 3.67967V3.3316H58.5061V3.67967H57.1138ZM58.8873 4.62442H59.7989V3.06641H60.1967V7.59127H59.7989V5.96696H58.8873V5.63547H59.7989V4.93933H58.8873V4.62442Z" fill="#00499E"/>
<path d="M63.2133 5.66862C62.7161 5.75149 62.1028 5.80121 61.473 5.80121H61.1747V4.42552H62.5503V3.77911H61.1581V3.44762H62.9481V4.74044H61.5724V5.46972C62.0365 5.46972 62.6995 5.43657 63.1802 5.33712L63.2133 5.66862ZM61.7713 7.4421V6.09956H62.1691V7.11061H64.9205V7.4421H61.7713ZM64.4067 6.44762V4.74044H63.8597V6.29845H63.4785V3.14928H63.8597V4.40895H64.4067V3.06641H64.7879V6.44762H64.4067Z" fill="#00499E"/>
<path d="M65.451 6.97776V6.64627H69.545V6.97776H65.451ZM65.9814 5.65179V3.51367H69.0146V3.84516H66.3792V5.3203H69.0643V5.65179H65.9814Z" fill="#00499E"/>
<path d="M74.3184 4.49182V4.16033H76.5725V4.49182H74.3184ZM75.4952 6.56364C74.915 6.56364 74.5007 6.18243 74.5007 5.66862C74.5007 5.12166 74.915 4.75701 75.4952 4.75701C76.0753 4.75701 76.4896 5.12166 76.4896 5.66862C76.4896 6.21558 76.0753 6.56364 75.4952 6.56364ZM74.8488 3.76254V3.41447H76.0918V3.76254H74.8488ZM75.4952 5.08851C75.1305 5.08851 74.8819 5.32055 74.8819 5.66862C74.8819 6.01668 75.1305 6.24873 75.4952 6.24873C75.8432 6.24873 76.1084 6.01668 76.1084 5.66862C76.1084 5.32055 75.8432 5.08851 75.4952 5.08851ZM77.7493 7.60784V5.25425H77.2023V7.3758H76.8211V3.18243H77.2023V4.92276H77.7493V3.06641H78.1305V7.59127H77.7493V7.60784Z" fill="#00499E"/>
<path d="M81.7437 6.3316C81.4122 6.38132 80.8819 6.41447 80.3349 6.44762C79.8045 6.4642 79.2575 6.49735 78.8598 6.49735L78.7935 6.14928C79.0089 6.14928 79.2244 6.14928 79.473 6.14928L79.3073 4.25978L79.7051 4.21005C79.7382 4.83989 79.7879 5.4863 79.8377 6.1327C80.02 6.1327 80.2023 6.11613 80.368 6.11613C80.4178 6.11613 80.4675 6.11613 80.5338 6.11613C80.5669 5.4863 80.6167 4.85646 80.6664 4.22663L81.0642 4.27635L80.8984 6.09956C81.2299 6.08298 81.5117 6.04983 81.7272 6.01668L81.7437 6.3316ZM78.9261 3.87856V3.54707H81.462V3.87856H78.9261ZM82.0918 7.60784V3.06641H82.4896V7.59127H82.0918V7.60784Z" fill="#00499E"/>
<path d="M83.4509 6.43105V3.54707H85.5393V6.43105H83.4509ZM85.1415 3.86199H83.8487V6.09956H85.1415V3.86199ZM85.7382 5.08851V4.75701H86.5835V3.06641H86.9813V7.59127H86.5835V5.08851H85.7382Z" fill="#00499E"/>
<path d="M90.6112 6.28188C90.0809 6.3979 88.9041 6.49735 88.2079 6.49735H88.009V3.54707H88.4068V6.14928C88.9869 6.14928 90.0311 6.06641 90.5781 5.95038L90.6112 6.28188ZM91.4234 7.60784H91.0256V3.06641H91.4234V7.60784Z" fill="#00499E"/>
<path d="M96.1635 7.02738V6.69588H98.0032V5.58539H96.6607V3.44727H99.7601V3.77876H97.0419V5.2539H99.7767V5.58539H98.3844V6.69588H100.241V7.02738H96.1635Z" fill="#00499E"/>
<path d="M103.108 6.51392C102.694 6.23215 102.164 5.66862 101.981 5.12165C101.816 5.68519 101.385 6.24873 100.854 6.61337L100.589 6.31503C101.252 5.90066 101.766 5.10508 101.766 4.29293V3.4642H102.164V4.29293C102.164 5.12165 102.711 5.85094 103.324 6.21558L103.108 6.51392ZM103.954 7.60784V5.02221H102.893V4.69072H103.954V3.06641H104.352V7.59127H103.954V7.60784Z" fill="#00499E"/>
<path d="M107.451 5.46972C107.02 5.25425 106.572 4.87304 106.39 4.40895C106.241 4.88961 105.793 5.33712 105.263 5.61889L105.047 5.32055C105.694 5.02221 106.175 4.4421 106.175 3.72939V3.28188H106.572V3.71282C106.572 4.42552 107.169 4.98906 107.683 5.17138L107.451 5.46972ZM107.136 7.59127C106.191 7.59127 105.628 7.25978 105.628 6.72939C105.628 6.18243 106.191 5.85094 107.136 5.85094C108.097 5.85094 108.661 6.18243 108.661 6.72939C108.661 7.25978 108.097 7.59127 107.136 7.59127ZM106.025 6.72939C106.025 7.07746 106.456 7.27635 107.136 7.27635C107.832 7.27635 108.263 7.07746 108.263 6.72939C108.263 6.38132 107.832 6.18243 107.136 6.18243C106.456 6.18243 106.025 6.38132 106.025 6.72939ZM108.594 4.62442V5.86751H108.197V3.06641H108.594V4.29293H109.291V4.62442H108.594Z" fill="#00499E"/>
<path d="M110.086 7.54189V6.11648H111.429V5.60267H109.589V5.27118H113.683V5.60267H111.827V6.11648H113.186V7.54189H110.086ZM109.987 3.61372V3.28223H113.252V3.61372H109.987ZM110.02 4.87339V4.54189H110.699L110.583 3.81261L110.998 3.76289L111.081 4.54189H112.158L112.257 3.76289L112.672 3.81261L112.539 4.54189H113.219V4.87339H110.02ZM112.788 6.4314H110.484V7.2104H112.788V6.4314Z" fill="#00499E"/>
<path d="M115.324 6.2653V5.25425C114.926 5.27083 114.528 5.27083 114.114 5.2874L114.048 4.93933C114.595 4.93933 115.108 4.92276 115.589 4.90619C115.755 4.90619 115.904 4.88961 116.07 4.88961C116.136 4.59127 116.186 4.12718 116.186 3.74596H114.412V3.41447H116.6C116.633 3.91171 116.55 4.45867 116.467 4.85646C116.666 4.83989 116.849 4.82331 117.014 4.80674L117.048 5.12165C116.7 5.17138 116.219 5.20453 115.722 5.23768V6.2653H115.324ZM114.644 7.47525V6.1327H115.042V7.16033H117.909V7.49182H114.644V7.47525ZM116.385 5.55259H117.396V3.06641H117.793V6.49735H117.396V5.86751H116.385V5.55259Z" fill="#00499E"/>
<path d="M71.9481 3.06641H71.6995V7.59127H71.9481V3.06641Z" fill="#00499E"/>
<path d="M93.9592 3.06641H93.7106V7.59127H93.9592V3.06641Z" fill="#00499E"/>
<defs>
<linearGradient id="paint0_linear_144_2206" x1="0.00187887" y1="22.4973" x2="75.3465" y2="22.4973" gradientUnits="userSpaceOnUse">
<stop stop-color="#696A70"/>
<stop offset="0.2688" stop-color="#C9CFD5"/>
<stop offset="0.5" stop-color="#A4ADB1"/>
<stop offset="0.7513" stop-color="#797D80"/>
<stop offset="1" stop-color="#898E93"/>
</linearGradient>
<linearGradient id="paint1_linear_144_2206" x1="0.00173923" y1="12.2049" x2="75.3463" y2="12.2049" gradientUnits="userSpaceOnUse">
<stop stop-color="#696A70"/>
<stop offset="0.2688" stop-color="#C9CFD5"/>
<stop offset="0.5" stop-color="#A4ADB1"/>
<stop offset="0.7513" stop-color="#797D80"/>
<stop offset="1" stop-color="#898E93"/>
</linearGradient>
<linearGradient id="paint2_linear_144_2206" x1="0.00169307" y1="32.6425" x2="75.3463" y2="32.6425" gradientUnits="userSpaceOnUse">
<stop stop-color="#696A70"/>
<stop offset="0.2688" stop-color="#C9CFD5"/>
<stop offset="0.5" stop-color="#A4ADB1"/>
<stop offset="0.7513" stop-color="#797D80"/>
<stop offset="1" stop-color="#898E93"/>
</linearGradient>
<linearGradient id="paint3_linear_144_2206" x1="0.00183767" y1="32.6425" x2="75.3464" y2="32.6425" gradientUnits="userSpaceOnUse">
<stop stop-color="#696A70"/>
<stop offset="0.2688" stop-color="#C9CFD5"/>
<stop offset="0.5" stop-color="#A4ADB1"/>
<stop offset="0.7513" stop-color="#797D80"/>
<stop offset="1" stop-color="#898E93"/>
</linearGradient>
<linearGradient id="paint4_linear_144_2206" x1="0.0018874" y1="14.7878" x2="75.3465" y2="14.7878" gradientUnits="userSpaceOnUse">
<stop stop-color="#696A70"/>
<stop offset="0.2688" stop-color="#C9CFD5"/>
<stop offset="0.5" stop-color="#A4ADB1"/>
<stop offset="0.7513" stop-color="#797D80"/>
<stop offset="1" stop-color="#898E93"/>
</linearGradient>
<linearGradient id="paint5_linear_144_2206" x1="11.1861" y1="43.7531" x2="11.1861" y2="25.9651" gradientUnits="userSpaceOnUse">
<stop stop-color="#82888C" stop-opacity="0"/>
<stop offset="1" stop-color="#6C7175"/>
</linearGradient>
<linearGradient id="paint6_linear_144_2206" x1="14.8076" y1="12.0504" x2="14.8076" y2="17.92" gradientUnits="userSpaceOnUse">
<stop stop-color="#82888C" stop-opacity="0"/>
<stop offset="1" stop-color="#6C7175"/>
</linearGradient>
</defs>
</svg>
